<svg xmlns="http://www.w3.org/2000/svg" xmlns:xlink="http://www.w3.org/1999/xlink" width="500" zoomAndPan="magnify" viewBox="0 0 375 374.999991" height="500" preserveAspectRatio="xMidYMid meet" version="1.0"><defs><g/><clipPath id="4f1a956cc0"><path d="M 86 18.75 L 94 18.75 L 94 26 L 86 26 Z M 86 18.75 " clip-rule="nonzero"/></clipPath><clipPath id="7882367e31"><path d="M 73 18.75 L 80 18.75 L 80 26 L 73 26 Z M 73 18.75 " clip-rule="nonzero"/></clipPath><clipPath id="c8d76a5847"><path d="M 42.007812 149.03125 L 264.691406 149.03125 L 264.691406 356.25 L 42.007812 356.25 Z M 42.007812 149.03125 " clip-rule="nonzero"/></clipPath></defs><path fill="#5e17eb" d="M 260.3125 56.304688 L 111.722656 56.304688 C 82.359375 56.304688 58.339844 80.335938 58.339844 109.707031 L 58.339844 258.339844 C 58.339844 287.710938 82.359375 311.742188 111.722656 311.742188 L 201.808594 311.742188 C 241.488281 311.742188 235.226562 337.316406 232.4375 345.011719 C 232.058594 346.058594 232.859375 347.175781 233.972656 347.136719 C 278.042969 345.617188 313.695312 302.722656 313.695312 258.339844 L 313.695312 109.707031 C 313.695312 80.335938 289.671875 56.304688 260.3125 56.304688 " fill-opacity="1" fill-rule="nonzero"/><path fill="#000000" d="M 131.0625 48.035156 C 131.007812 48.035156 130.953125 48.03125 130.898438 48.023438 C 130.007812 47.925781 129.121094 47.847656 128.230469 47.800781 C 127.441406 47.761719 126.835938 47.085938 126.878906 46.296875 C 126.921875 45.503906 127.597656 44.910156 128.382812 44.941406 C 129.332031 44.992188 130.28125 45.074219 131.222656 45.179688 C 132.007812 45.269531 132.570312 45.980469 132.484375 46.765625 C 132.398438 47.496094 131.777344 48.035156 131.0625 48.035156 Z M 120.03125 48.101562 C 119.320312 48.101562 118.703125 47.574219 118.613281 46.847656 C 118.515625 46.066406 119.070312 45.347656 119.851562 45.25 C 120.792969 45.132812 121.734375 45.042969 122.6875 44.976562 C 123.464844 44.921875 124.15625 45.523438 124.210938 46.3125 C 124.265625 47.101562 123.664062 47.78125 122.875 47.835938 C 121.984375 47.894531 121.09375 47.980469 120.210938 48.089844 C 120.152344 48.097656 120.089844 48.101562 120.03125 48.101562 Z M 139.230469 49.4375 C 139.144531 49.4375 139.054688 49.433594 138.96875 49.417969 L 136.25 48.910156 C 135.472656 48.761719 134.960938 48.015625 135.105469 47.238281 C 135.25 46.460938 135.996094 45.949219 136.773438 46.09375 L 139.488281 46.597656 C 140.269531 46.746094 140.78125 47.492188 140.636719 48.269531 C 140.507812 48.957031 139.90625 49.4375 139.230469 49.4375 Z M 111.945312 49.871094 C 111.335938 49.871094 110.769531 49.480469 110.582031 48.867188 C 110.34375 48.117188 110.757812 47.3125 111.515625 47.074219 C 112.417969 46.789062 113.332031 46.527344 114.257812 46.296875 C 115.015625 46.101562 115.804688 46.574219 115.992188 47.339844 C 116.1875 48.109375 115.71875 48.882812 114.953125 49.078125 C 114.082031 49.292969 113.222656 49.539062 112.375 49.804688 C 112.230469 49.847656 112.085938 49.871094 111.945312 49.871094 " fill-opacity="1" fill-rule="nonzero"/><path fill="#000000" d="M 52.035156 235.59375 C 51.988281 235.59375 51.941406 235.589844 51.894531 235.585938 C 51.105469 235.503906 50.53125 234.804688 50.613281 234.015625 C 50.710938 233.03125 50.835938 232.082031 50.980469 231.1875 C 51.109375 230.40625 51.84375 229.878906 52.621094 230.007812 C 53.402344 230.132812 53.933594 230.867188 53.804688 231.648438 C 53.667969 232.488281 53.554688 233.378906 53.457031 234.300781 C 53.386719 235.039062 52.765625 235.59375 52.035156 235.59375 Z M 51.757812 243.878906 C 50.988281 243.878906 50.351562 243.261719 50.332031 242.484375 C 50.3125 241.832031 50.300781 241.179688 50.300781 240.519531 L 50.304688 239.660156 C 50.316406 238.871094 50.984375 238.25 51.753906 238.246094 C 52.546875 238.257812 53.179688 238.90625 53.171875 239.699219 L 53.167969 240.519531 C 53.167969 241.148438 53.171875 241.777344 53.191406 242.40625 C 53.214844 243.195312 52.589844 243.855469 51.800781 243.878906 C 51.785156 243.878906 51.773438 243.878906 51.757812 243.878906 Z M 52.574219 252.121094 C 51.90625 252.121094 51.304688 251.644531 51.171875 250.960938 C 51.003906 250.089844 50.851562 249.132812 50.730469 248.128906 C 50.636719 247.347656 51.195312 246.628906 51.980469 246.539062 C 52.773438 246.445312 53.480469 247.003906 53.574219 247.785156 C 53.6875 248.726562 53.824219 249.609375 53.980469 250.417969 C 54.132812 251.191406 53.625 251.941406 52.851562 252.097656 C 52.757812 252.113281 52.664062 252.121094 52.574219 252.121094 " fill-opacity="1" fill-rule="nonzero"/><path fill="#000000" d="M 212.398438 323.941406 C 211.90625 323.941406 211.429688 323.6875 211.160156 323.234375 C 210.726562 322.488281 210.242188 321.757812 209.722656 321.050781 C 209.253906 320.414062 209.390625 319.519531 210.023438 319.046875 C 210.660156 318.578125 211.558594 318.714844 212.027344 319.351562 C 212.601562 320.132812 213.140625 320.953125 213.632812 321.78125 C 214.03125 322.464844 213.804688 323.339844 213.125 323.738281 C 212.894531 323.875 212.644531 323.941406 212.398438 323.941406 Z M 215.417969 331.625 C 214.761719 331.625 214.167969 331.167969 214.023438 330.5 C 213.835938 329.652344 213.601562 328.804688 213.328125 327.980469 C 213.082031 327.230469 213.480469 326.417969 214.234375 326.171875 C 214.984375 325.914062 215.796875 326.328125 216.042969 327.078125 C 216.351562 327.996094 216.609375 328.9375 216.820312 329.886719 C 216.988281 330.65625 216.496094 331.421875 215.726562 331.59375 C 215.625 331.613281 215.519531 331.625 215.417969 331.625 Z M 215.964844 339.871094 C 215.929688 339.871094 215.894531 339.871094 215.859375 339.867188 C 215.066406 339.804688 214.476562 339.121094 214.535156 338.332031 C 214.589844 337.605469 214.617188 336.875 214.617188 336.136719 L 214.613281 335.695312 C 214.605469 334.90625 215.238281 334.253906 216.03125 334.242188 C 216.859375 334.253906 217.464844 334.863281 217.476562 335.65625 L 217.480469 336.136719 C 217.480469 336.949219 217.453125 337.753906 217.390625 338.542969 C 217.335938 339.296875 216.707031 339.871094 215.964844 339.871094 Z M 214.363281 347.988281 C 214.21875 347.988281 214.078125 347.96875 213.933594 347.921875 C 213.179688 347.6875 212.757812 346.882812 212.996094 346.125 C 213.265625 345.273438 213.503906 344.410156 213.707031 343.558594 C 213.886719 342.789062 214.664062 342.316406 215.429688 342.5 C 216.203125 342.683594 216.675781 343.457031 216.488281 344.226562 C 216.273438 345.140625 216.015625 346.070312 215.730469 346.984375 C 215.535156 347.597656 214.972656 347.988281 214.363281 347.988281 " fill-opacity="1" fill-rule="nonzero"/><path fill="#000000" d="M 319.828125 109.964844 C 319.195312 109.964844 318.617188 109.542969 318.445312 108.90625 C 318.210938 108.046875 317.953125 107.191406 317.671875 106.339844 C 317.417969 105.59375 317.824219 104.78125 318.574219 104.527344 C 319.324219 104.28125 320.132812 104.683594 320.386719 105.429688 C 320.6875 106.335938 320.960938 107.246094 321.207031 108.160156 C 321.417969 108.921875 320.964844 109.707031 320.199219 109.914062 C 320.074219 109.949219 319.949219 109.964844 319.828125 109.964844 Z M 321.246094 118.125 C 320.507812 118.125 319.882812 117.558594 319.820312 116.808594 C 319.746094 115.917969 319.648438 115.03125 319.519531 114.148438 C 319.410156 113.363281 319.953125 112.636719 320.738281 112.527344 C 321.527344 112.421875 322.246094 112.960938 322.355469 113.746094 C 322.488281 114.683594 322.597656 115.628906 322.675781 116.574219 C 322.734375 117.359375 322.152344 118.050781 321.363281 118.117188 C 321.320312 118.121094 321.285156 118.125 321.246094 118.125 Z M 321.167969 126.40625 C 321.121094 126.40625 321.074219 126.40625 321.027344 126.398438 C 320.238281 126.320312 319.667969 125.621094 319.742188 124.832031 C 319.832031 123.941406 319.894531 123.050781 319.929688 122.160156 C 319.960938 121.367188 320.691406 120.757812 321.417969 120.785156 C 322.207031 120.820312 322.820312 121.484375 322.792969 122.273438 C 322.75 123.222656 322.6875 124.167969 322.59375 125.117188 C 322.519531 125.855469 321.894531 126.40625 321.167969 126.40625 " fill-opacity="1" fill-rule="nonzero"/><path fill="#000000" d="M 148.742188 324.457031 C 148.375 324.457031 148.007812 324.3125 147.730469 324.035156 L 145.523438 321.832031 C 144.964844 321.269531 144.964844 320.363281 145.523438 319.804688 C 146.082031 319.246094 146.988281 319.246094 147.550781 319.804688 L 149.753906 322.011719 C 150.316406 322.570312 150.316406 323.476562 149.753906 324.035156 C 149.476562 324.3125 149.109375 324.457031 148.742188 324.457031 " fill-opacity="1" fill-rule="nonzero"/><path fill="#000000" d="M 158.472656 334.191406 C 158.109375 334.191406 157.742188 334.050781 157.460938 333.769531 L 155.257812 331.5625 C 154.699219 331.007812 154.699219 330.097656 155.257812 329.542969 C 155.816406 328.980469 156.722656 328.980469 157.28125 329.542969 L 159.484375 331.746094 C 160.042969 332.304688 160.042969 333.210938 159.484375 333.769531 C 159.207031 334.050781 158.839844 334.191406 158.472656 334.191406 " fill-opacity="1" fill-rule="nonzero"/><path fill="#000000" d="M 146.535156 334.191406 C 146.171875 334.191406 145.804688 334.050781 145.523438 333.769531 C 144.964844 333.210938 144.964844 332.304688 145.523438 331.746094 L 147.730469 329.542969 C 148.289062 328.980469 149.195312 328.980469 149.753906 329.542969 C 150.316406 330.097656 150.316406 331.007812 149.753906 331.5625 L 147.550781 333.769531 C 147.269531 334.050781 146.902344 334.191406 146.535156 334.191406 " fill-opacity="1" fill-rule="nonzero"/><path fill="#000000" d="M 156.269531 324.457031 C 155.902344 324.457031 155.539062 324.3125 155.257812 324.035156 C 154.699219 323.476562 154.699219 322.570312 155.257812 322.011719 L 157.460938 319.804688 C 158.019531 319.246094 158.929688 319.246094 159.484375 319.804688 C 160.042969 320.363281 160.042969 321.269531 159.484375 321.832031 L 157.28125 324.035156 C 157 324.3125 156.636719 324.457031 156.269531 324.457031 " fill-opacity="1" fill-rule="nonzero"/><path fill="#000000" d="M 314.453125 70.316406 C 314.445312 70.316406 314.441406 70.316406 314.433594 70.316406 C 313.640625 70.300781 313.011719 69.648438 313.023438 68.859375 L 313.117188 63.601562 C 313.128906 62.820312 313.765625 62.195312 314.546875 62.195312 C 314.554688 62.195312 314.5625 62.195312 314.570312 62.195312 C 315.359375 62.207031 315.992188 62.859375 315.976562 63.648438 L 315.886719 68.90625 C 315.871094 69.691406 315.238281 70.316406 314.453125 70.316406 " fill-opacity="1" fill-rule="nonzero"/><path fill="#000000" d="M 329.609375 80.65625 C 329.605469 80.65625 329.597656 80.65625 329.589844 80.652344 L 324.332031 80.5625 C 323.539062 80.546875 322.910156 79.898438 322.925781 79.105469 C 322.9375 78.320312 323.578125 77.695312 324.355469 77.695312 C 324.363281 77.695312 324.375 77.695312 324.382812 77.699219 L 329.636719 77.789062 C 330.425781 77.800781 331.058594 78.453125 331.042969 79.242188 C 331.027344 80.027344 330.394531 80.65625 329.609375 80.65625 " fill-opacity="1" fill-rule="nonzero"/><path fill="#000000" d="M 320.804688 74.089844 C 320.429688 74.089844 320.054688 73.941406 319.773438 73.648438 C 319.222656 73.082031 319.238281 72.175781 319.808594 71.628906 L 323.210938 68.335938 C 323.78125 67.789062 324.6875 67.808594 325.234375 68.375 C 325.785156 68.941406 325.769531 69.847656 325.199219 70.398438 L 321.796875 73.6875 C 321.519531 73.953125 321.160156 74.089844 320.804688 74.089844 " fill-opacity="1" fill-rule="nonzero"/><path fill="#000000" d="M 74.859375 38.6875 C 74.492188 38.6875 74.125 38.546875 73.847656 38.265625 C 73.289062 37.707031 73.289062 36.800781 73.847656 36.242188 L 77.464844 32.621094 C 78.023438 32.0625 78.929688 32.0625 79.488281 32.621094 C 80.046875 33.183594 80.046875 34.089844 79.488281 34.648438 L 75.871094 38.265625 C 75.59375 38.546875 75.226562 38.6875 74.859375 38.6875 " fill-opacity="1" fill-rule="nonzero"/><g clip-path="url(#4f1a956cc0)"><path fill="#000000" d="M 88.121094 25.417969 C 87.753906 25.417969 87.390625 25.277344 87.113281 25 C 86.550781 24.441406 86.550781 23.53125 87.113281 22.972656 L 90.726562 19.355469 C 91.285156 18.792969 92.191406 18.792969 92.75 19.355469 C 93.3125 19.917969 93.3125 20.820312 92.75 21.378906 L 89.132812 25 C 88.855469 25.277344 88.492188 25.417969 88.121094 25.417969 " fill-opacity="1" fill-rule="nonzero"/></g><path fill="#000000" d="M 91.738281 38.6875 C 91.375 38.6875 91.007812 38.546875 90.726562 38.265625 L 87.113281 34.648438 C 86.550781 34.089844 86.550781 33.183594 87.113281 32.621094 C 87.667969 32.066406 88.578125 32.0625 89.132812 32.621094 L 92.75 36.242188 C 93.3125 36.800781 93.3125 37.707031 92.75 38.265625 C 92.472656 38.542969 92.109375 38.6875 91.738281 38.6875 " fill-opacity="1" fill-rule="nonzero"/><g clip-path="url(#7882367e31)"><path fill="#000000" d="M 78.476562 25.417969 C 78.109375 25.417969 77.746094 25.277344 77.464844 25 L 73.847656 21.378906 C 73.289062 20.820312 73.289062 19.914062 73.847656 19.355469 C 74.410156 18.792969 75.316406 18.792969 75.871094 19.355469 L 79.488281 22.972656 C 80.046875 23.53125 80.046875 24.441406 79.488281 25 C 79.210938 25.277344 78.839844 25.417969 78.476562 25.417969 " fill-opacity="1" fill-rule="nonzero"/></g><path fill="#000000" d="M 54.871094 59.152344 C 54.503906 59.152344 54.136719 59.015625 53.855469 58.734375 L 51.652344 56.527344 C 51.09375 55.96875 51.09375 55.0625 51.652344 54.503906 C 52.210938 53.945312 53.117188 53.945312 53.679688 54.503906 L 55.886719 56.707031 C 56.441406 57.265625 56.441406 58.171875 55.882812 58.734375 C 55.605469 59.015625 55.238281 59.152344 54.871094 59.152344 " fill-opacity="1" fill-rule="nonzero"/><path fill="#000000" d="M 64.601562 68.890625 C 64.238281 68.890625 63.871094 68.75 63.589844 68.46875 L 61.386719 66.261719 C 60.828125 65.703125 60.828125 64.792969 61.386719 64.238281 C 61.945312 63.679688 62.851562 63.679688 63.410156 64.238281 L 65.613281 66.445312 C 66.175781 67.003906 66.175781 67.910156 65.613281 68.46875 C 65.335938 68.75 64.96875 68.890625 64.601562 68.890625 " fill-opacity="1" fill-rule="nonzero"/><path fill="#000000" d="M 52.664062 68.890625 C 52.300781 68.890625 51.933594 68.75 51.652344 68.46875 C 51.09375 67.910156 51.09375 67.003906 51.652344 66.445312 L 53.855469 64.238281 C 54.421875 63.679688 55.324219 63.679688 55.882812 64.238281 C 56.441406 64.792969 56.441406 65.703125 55.886719 66.261719 L 53.679688 68.46875 C 53.398438 68.746094 53.03125 68.890625 52.664062 68.890625 " fill-opacity="1" fill-rule="nonzero"/><path fill="#000000" d="M 62.398438 59.152344 C 62.03125 59.152344 61.667969 59.015625 61.386719 58.734375 C 60.828125 58.171875 60.828125 57.265625 61.386719 56.707031 L 63.589844 54.503906 C 64.148438 53.945312 65.054688 53.945312 65.613281 54.503906 C 66.175781 55.0625 66.175781 55.96875 65.613281 56.527344 L 63.410156 58.734375 C 63.132812 59.011719 62.765625 59.152344 62.398438 59.152344 " fill-opacity="1" fill-rule="nonzero"/><path fill="#000000" d="M 321.238281 88.761719 C 314.160156 78.433594 304.109375 70.953125 292.46875 67.164062 C 294.742188 68.894531 296.871094 70.800781 298.839844 72.859375 C 306.800781 76.839844 313.683594 82.804688 318.875 90.382812 C 326.929688 102.121094 329.941406 116.246094 327.351562 130.140625 L 313.695312 203.492188 L 313.695312 219.132812 L 330.167969 130.664062 C 332.894531 116.015625 329.722656 101.136719 321.238281 88.761719 " fill-opacity="1" fill-rule="nonzero"/><g clip-path="url(#c8d76a5847)"><path fill="#000000" d="M 249.859375 344.75 C 238.808594 350.285156 226.804688 353.402344 214.722656 353.398438 C 211.296875 353.398438 207.859375 353.148438 204.449219 352.632812 C 204.425781 352.628906 204.359375 352.617188 204.320312 352.535156 C 204.296875 352.488281 204.28125 352.421875 204.324219 352.351562 C 206.742188 348.230469 211.890625 337.597656 207.4375 327.820312 C 203.664062 319.535156 194.027344 313.894531 178.796875 311.054688 L 88.28125 294.191406 C 59.476562 288.824219 40.410156 261.019531 45.777344 232.210938 L 58.339844 164.738281 L 58.339844 149.09375 L 42.960938 231.683594 C 40.234375 246.335938 43.402344 261.21875 51.890625 273.589844 C 60.375 285.960938 73.109375 294.277344 87.753906 297.007812 L 178.273438 313.871094 C 192.53125 316.53125 201.46875 321.617188 204.832031 329.003906 C 208.730469 337.5625 204.050781 347.167969 201.855469 350.898438 C 201.339844 351.773438 201.296875 352.84375 201.734375 353.761719 C 202.171875 354.679688 203.027344 355.3125 204.019531 355.464844 C 207.566406 356 211.121094 356.257812 214.671875 356.257812 C 232.269531 356.253906 249.707031 349.898438 264.441406 339.144531 C 259.785156 341.5 254.914062 343.402344 249.859375 344.75 " fill-opacity="1" fill-rule="nonzero"/></g><path fill="#000000" d="M 78.878906 67.703125 C 82.847656 60.234375 88.59375 53.765625 95.800781 48.816406 C 104.792969 42.644531 115.179688 39.4375 125.796875 39.4375 C 129.035156 39.4375 132.296875 39.734375 135.546875 40.34375 L 221.230469 56.304688 L 236.867188 56.304688 L 136.070312 37.527344 C 121.425781 34.796875 106.550781 37.96875 94.179688 46.457031 C 84.6875 52.972656 77.589844 61.996094 73.570312 72.464844 C 75.230469 70.765625 77.003906 69.175781 78.878906 67.703125 " fill-opacity="1" fill-rule="nonzero"/><path fill="#000000" d="M 61.617188 291.542969 C 61.625 291.542969 61.632812 291.542969 61.640625 291.542969 C 62.429688 291.480469 63.121094 292.0625 63.1875 292.847656 L 63.621094 298.09375 C 63.683594 298.871094 63.113281 299.554688 62.335938 299.636719 C 62.328125 299.636719 62.320312 299.636719 62.3125 299.636719 C 61.523438 299.699219 60.835938 299.117188 60.769531 298.328125 L 60.332031 293.085938 C 60.269531 292.308594 60.839844 291.621094 61.617188 291.542969 " fill-opacity="1" fill-rule="nonzero"/><path fill="#000000" d="M 45.503906 282.773438 C 45.511719 282.773438 45.519531 282.769531 45.527344 282.769531 L 50.769531 282.335938 C 51.554688 282.269531 52.25 282.855469 52.316406 283.644531 C 52.375 284.421875 51.804688 285.109375 51.027344 285.1875 C 51.019531 285.1875 51.011719 285.191406 51.003906 285.191406 L 45.765625 285.625 C 44.980469 285.691406 44.285156 285.105469 44.21875 284.316406 C 44.15625 283.539062 44.726562 282.851562 45.503906 282.773438 " fill-opacity="1" fill-rule="nonzero"/><path fill="#000000" d="M 54.925781 288.425781 C 55.296875 288.386719 55.683594 288.496094 55.992188 288.753906 C 56.59375 289.265625 56.671875 290.171875 56.160156 290.773438 L 53.105469 294.386719 C 52.59375 294.992188 51.6875 295.066406 51.085938 294.554688 C 50.484375 294.042969 50.40625 293.136719 50.917969 292.535156 L 53.972656 288.921875 C 54.226562 288.628906 54.570312 288.457031 54.925781 288.425781 " fill-opacity="1" fill-rule="nonzero"/><path fill="#5e17eb" d="M 235.320312 214.726562 C 214.785156 214.726562 199.6875 190.925781 199.6875 178.722656 C 199.6875 163.378906 205.53125 158.125 235.320312 158.125 C 253.367188 158.125 266.03125 160.964844 266.03125 183.855469 C 266.03125 199.203125 257.585938 214.726562 235.320312 214.726562 Z M 140.621094 214.726562 C 118.351562 214.726562 109.902344 199.203125 109.902344 183.855469 C 109.902344 160.964844 122.566406 158.125 140.621094 158.125 C 170.402344 158.125 176.246094 163.378906 176.246094 178.722656 C 176.246094 190.925781 161.148438 214.726562 140.621094 214.726562 Z M 278.070312 159.121094 C 271.8125 158.789062 259.328125 153.210938 242.6875 152.234375 C 240.226562 152.039062 237.753906 151.964844 235.320312 151.964844 C 222.363281 151.964844 212.933594 153.839844 205.921875 156.5 C 198.152344 159.433594 189.65625 159.707031 187.964844 159.734375 C 186.277344 159.707031 177.78125 159.433594 170.015625 156.5 C 163 153.839844 153.570312 151.964844 140.621094 151.964844 C 138.179688 151.964844 135.707031 152.039062 133.25 152.234375 C 116.605469 153.210938 104.121094 158.789062 97.867188 159.121094 C 94.625 159.296875 94.636719 163.289062 94.636719 165.558594 L 94.636719 166.523438 C 94.636719 171.203125 97.65625 171.074219 98.859375 172.96875 C 101.210938 176.683594 103.109375 181.386719 104.359375 189.117188 C 106.792969 204.226562 117.0625 219.859375 140.621094 219.859375 C 160.320312 219.859375 175.164062 203.207031 180.683594 187.125 C 183.964844 177.558594 187.015625 178.140625 187.964844 177.917969 C 188.917969 178.140625 191.972656 177.558594 195.25 187.125 C 200.769531 203.207031 215.617188 219.859375 235.320312 219.859375 C 258.871094 219.859375 269.140625 204.226562 271.578125 189.117188 C 272.828125 181.386719 274.722656 176.683594 277.078125 172.96875 C 278.277344 171.074219 281.296875 171.203125 281.296875 166.523438 L 281.296875 165.558594 C 281.296875 163.289062 281.308594 159.296875 278.070312 159.121094 " fill-opacity="1" fill-rule="nonzero"/><path fill="#5e17eb" d="M 215.621094 200.234375 L 221.085938 200.234375 L 231.523438 168.003906 L 226.046875 168.003906 L 215.621094 200.234375 " fill-opacity="1" fill-rule="nonzero"/><path fill="#5e17eb" d="M 232.671875 177.792969 L 245.683594 185.308594 L 232.660156 192.835938 L 234.867188 199.691406 L 259.765625 185.308594 L 234.878906 170.933594 L 232.671875 177.792969 " fill-opacity="1" fill-rule="nonzero"/><path fill="#5e17eb" d="M 150.546875 170.933594 L 125.640625 185.316406 L 150.535156 199.695312 L 152.742188 192.832031 L 139.722656 185.316406 L 152.753906 177.792969 L 150.546875 170.933594 " fill-opacity="1" fill-rule="nonzero"/><path fill="#5e17eb" d="M 233.449219 212.855469 C 212.914062 212.855469 197.816406 189.054688 197.816406 176.851562 C 197.816406 161.507812 203.660156 156.253906 233.449219 156.253906 C 251.496094 156.253906 264.160156 159.09375 264.160156 181.984375 C 264.160156 197.332031 255.714844 212.855469 233.449219 212.855469 Z M 138.746094 212.855469 C 116.480469 212.855469 108.03125 197.332031 108.03125 181.984375 C 108.03125 159.09375 120.695312 156.253906 138.746094 156.253906 C 168.53125 156.253906 174.375 161.507812 174.375 176.851562 C 174.375 189.054688 159.277344 212.855469 138.746094 212.855469 Z M 276.199219 157.246094 C 269.941406 156.917969 257.457031 151.339844 240.816406 150.363281 C 238.355469 150.167969 235.882812 150.09375 233.449219 150.09375 C 220.492188 150.09375 211.0625 151.96875 204.050781 154.625 C 196.28125 157.5625 187.785156 157.835938 186.09375 157.863281 C 184.40625 157.835938 175.910156 157.5625 168.144531 154.625 C 161.128906 151.96875 151.699219 150.09375 138.746094 150.09375 C 136.308594 150.09375 133.835938 150.167969 131.378906 150.363281 C 114.734375 151.339844 102.25 156.917969 95.996094 157.246094 C 92.753906 157.421875 92.765625 161.414062 92.765625 163.6875 L 92.765625 164.652344 C 92.765625 169.332031 95.785156 169.203125 96.988281 171.097656 C 99.339844 174.8125 101.238281 179.511719 102.488281 187.246094 C 104.921875 202.355469 115.191406 217.988281 138.746094 217.988281 C 158.449219 217.988281 173.292969 201.335938 178.8125 185.253906 C 182.09375 175.683594 185.144531 176.269531 186.09375 176.046875 C 187.046875 176.269531 190.101562 175.683594 193.378906 185.253906 C 198.898438 201.335938 213.746094 217.988281 233.449219 217.988281 C 257 217.988281 267.269531 202.355469 269.707031 187.246094 C 270.957031 179.511719 272.851562 174.8125 275.203125 171.097656 C 276.40625 169.203125 279.425781 169.332031 279.425781 164.652344 L 279.425781 163.6875 C 279.425781 161.414062 279.4375 157.421875 276.199219 157.246094 " fill-opacity="1" fill-rule="nonzero"/><path fill="#5e17eb" d="M 213.75 198.363281 L 219.214844 198.363281 L 229.652344 166.132812 L 224.175781 166.132812 L 213.75 198.363281 " fill-opacity="1" fill-rule="nonzero"/><path fill="#5e17eb" d="M 230.796875 175.917969 L 243.8125 183.4375 L 230.789062 190.964844 L 232.996094 197.820312 L 257.894531 183.4375 L 233.007812 169.058594 L 230.796875 175.917969 " fill-opacity="1" fill-rule="nonzero"/><path fill="#5e17eb" d="M 148.675781 169.058594 L 123.769531 183.441406 L 148.664062 197.824219 L 150.871094 190.960938 L 137.851562 183.441406 L 150.882812 175.917969 L 148.675781 169.058594 " fill-opacity="1" fill-rule="nonzero"/><g fill="#ffffff" fill-opacity="1"><g transform="translate(116.779084, 226.322738)"><g><path d="M 4 -47.21875 C 9.039062 -47.21875 12.992188 -48.191406 15.859375 -50.140625 C 18.722656 -52.085938 20.15625 -54.832031 20.15625 -58.375 L 20.15625 -75.0625 C 20.15625 -81.144531 21.226562 -85.695312 23.375 -88.71875 C 25.519531 -91.738281 29.007812 -93.9375 33.84375 -95.3125 C 38.6875 -96.695312 45.375 -97.390625 53.90625 -97.390625 L 53.90625 -79.0625 C 50.007812 -78.925781 47.375 -78.628906 46 -78.171875 C 44.625 -77.710938 43.519531 -77 42.6875 -76.03125 C 41.851562 -75.070312 41.4375 -73.757812 41.4375 -72.09375 L 41.4375 -54.3125 C 41.4375 -49.363281 40.195312 -45.5625 37.71875 -42.90625 C 35.25 -40.257812 31.234375 -38.546875 25.671875 -37.765625 L 25.671875 -36.96875 C 31.273438 -36.09375 35.300781 -34.363281 37.75 -31.78125 C 40.207031 -29.195312 41.4375 -25.539062 41.4375 -20.8125 L 41.4375 -2.6875 C 41.4375 -0.976562 41.894531 0.351562 42.8125 1.3125 C 43.726562 2.28125 44.953125 2.992188 46.484375 3.453125 C 48.023438 3.910156 50.5 4.203125 53.90625 4.328125 L 53.90625 22.59375 C 45.28125 22.59375 38.5625 21.890625 33.75 20.484375 C 28.9375 19.085938 25.46875 16.867188 23.34375 13.828125 C 21.21875 10.785156 20.15625 6.175781 20.15625 0 L 20.15625 -16.28125 C 20.15625 -19.78125 18.6875 -22.515625 15.75 -24.484375 C 12.820312 -26.460938 8.90625 -27.453125 4 -27.453125 Z M 4 -47.21875 "/></g></g><g transform="translate(175.023231, 226.322738)"><g/></g></g><g fill="#ffffff" fill-opacity="1"><g transform="translate(209.956577, 226.322738)"><g><path d="M 43.46875 -38.21875 C 43.46875 -25.832031 41.898438 -14.570312 38.765625 -4.4375 C 35.640625 5.695312 31.054688 14.269531 25.015625 21.28125 L 3.75 21.28125 C 9.257812 13.75 13.476562 4.804688 16.40625 -5.546875 C 19.34375 -15.898438 20.8125 -26.832031 20.8125 -38.34375 C 20.8125 -49.945312 19.363281 -60.925781 16.46875 -71.28125 C 13.582031 -81.632812 9.296875 -90.773438 3.609375 -98.703125 L 25.015625 -98.703125 C 31.097656 -91.429688 35.691406 -82.628906 38.796875 -72.296875 C 41.910156 -61.960938 43.46875 -50.601562 43.46875 -38.21875 Z M 16.21875 -97.515625 Z M 16.21875 -97.515625 "/></g></g></g></svg>